# xmcd
#
# Track frame offsets:
#	150
#	12379
#	29054
#	45151
#	62613
#	80176
#	101129
#	117174
#	131340
#	150781
#	169414
#	184953
#	200025
#	215099
#	227219
#
# Disc length: 3271 seconds
#
# Revision: 0
# Processed by: cddbd v1.5PL3 Copyright (c) Steve Scherf et al.
# Submitted via: dBpowerAMP V4.0
#
DISCID=d30cc50f
DTITLE=Michael Quest - 24-7-365
DYEAR=2003
DGENRE=Blues
TTITLE0=24-7-365
TTITLE1=Caught In The Valley
TTITLE2=Gonna Get Some
TTITLE3=Ready To Go
TTITLE4=Unwanted Man
TTITLE5=Body and Blood
TTITLE6=Q-Surf
TTITLE7=Jumble
TTITLE8=Apartment Blues
TTITLE9=F-Word
TTITLE10=Invisible Strings
TTITLE11=The Kinda Crazy I Like
TTITLE12=MM-n-M Blues
TTITLE13=My Next Wife Met My X-Wife
TTITLE14=Better Place
EXTD=
EXTT0=
EXTT1=
EXTT2=
EXTT3=
EXTT4=
EXTT5=
EXTT6=
EXTT7=
EXTT8=
EXTT9=
EXTT10=
EXTT11=
EXTT12=
EXTT13=
EXTT14=
PLAYORDER=
